<?xml version="1.0" standalone="no"?>
<!DOCTYPE svg PUBLIC "-//W3C//DTD SVG 20010904//EN"
 "http://www.w3.org/TR/2001/REC-SVG-20010904/DTD/svg10.dtd">
<svg version="1.0" xmlns="http://www.w3.org/2000/svg"
 width="512.000000pt" height="512.000000pt" viewBox="0 0 512.000000 512.000000"
 preserveAspectRatio="xMidYMid meet">
<metadata>
Created by potrace 1.11, written by Peter Selinger 2001-2013
</metadata>
<g transform="translate(0.000000,512.000000) scale(0.100000,-0.100000)"
fill="#000000" stroke="none">
<path d="M3175 5096 l-25 -25 0 -359 c0 -347 1 -359 20 -380 30 -32 82 -30
110 5 20 26 21 33 18 384 -3 394 -1 380 -65 394 -27 5 -37 2 -58 -19z"/>
<path d="M2631 4668 c-31 -11 -50 -37 -51 -66 0 -13 27 -87 60 -165 33 -79 60
-147 60 -153 0 -24 49 -64 78 -64 67 0 94 62 58 134 -8 17 -38 88 -67 158 -61
151 -84 177 -138 156z"/>
<path d="M3743 4650 c-19 -22 -137 -300 -148 -348 -14 -65 76 -109 122 -59 11
12 51 95 88 185 61 150 66 165 55 196 -6 19 -18 37 -26 40 -32 12 -75 6 -91
-14z"/>
<path d="M1921 4581 c-35 -9 -65 -53 -57 -85 4 -16 105 -125 256 -276 229
-229 253 -250 284 -250 26 0 40 7 56 27 40 51 29 67 -228 325 -130 132 -248
245 -262 252 -14 7 -36 10 -49 7z"/>
<path d="M4473 4570 c-15 -10 -135 -125 -265 -257 -210 -211 -238 -243 -238
-271 0 -40 33 -72 75 -72 28 0 61 29 281 250 137 138 250 252 252 254 13 16 9
57 -8 78 -25 33 -62 40 -97 18z"/>
<path d="M3178 4125 c-2 -2 -28 -5 -58 -8 -75 -8 -105 -14 -180 -39 -67 -21
-182 -77 -188 -90 -2 -5 -9 -8 -15 -8 -24 0 -159 -123 -219 -198 -71 -89 -139
-226 -169 -338 -30 -113 -31 -308 -3 -431 67 -294 302 -549 594 -647 103 -34
128 -38 267 -41 196 -5 360 41 518 147 204 136 350 359 391 600 10 57 11 230
2 294 -27 182 -144 398 -285 524 -166 149 -362 225 -599 235 -30 1 -55 1 -56
0z"/>
<path d="M1800 3848 c-11 -10 -23 -30 -26 -43 -11 -45 17 -69 138 -120 62 -26
131 -56 153 -65 66 -30 90 -33 123 -16 35 18 48 57 30 93 -12 25 -53 47 -193
103 -16 7 -43 18 -60 25 -108 48 -134 51 -165 23z"/>
<path d="M4420 3799 c-168 -70 -200 -92 -200 -136 0 -28 41 -73 68 -73 17 0
301 113 350 139 40 21 46 89 11 118 -34 28 -64 22 -229 -48z"/>
<path d="M1368 3286 c-27 -14 -43 -54 -35 -87 13 -50 24 -51 406 -51 l355 0
23 27 c28 32 29 65 4 96 l-19 24 -355 1 c-250 1 -363 -2 -379 -10z"/>
<path d="M4333 3274 c-29 -29 -30 -73 -3 -102 23 -25 -8 -23 451 -24 152 0
286 3 297 6 18 6 42 51 42 81 0 7 -9 23 -21 36 l-21 24 -360 1 -361 2 -24 -24z"/>
<path d="M4263 2843 c-34 -16 -47 -48 -37 -89 7 -29 46 -50 250 -132 111 -46
123 -49 151 -37 17 7 34 18 37 24 14 21 9 71 -8 90 -15 16 -130 68 -314 140
-44 18 -51 18 -79 4z"/>
<path d="M1637 2784 c-214 -38 -507 -206 -507 -291 0 -15 4 -35 10 -43 5 -8 6
-17 1 -20 -4 -3 -25 -27 -47 -55 -32 -41 -44 -49 -66 -47 -46 5 -68 -16 -108
-101 -52 -111 -77 -207 -88 -342 l-7 -80 -45 -6 c-296 -44 -552 -228 -683
-490 -109 -218 -124 -481 -42 -714 73 -209 251 -405 455 -503 132 -63 223 -82
411 -88 162 -6 195 1 210 44 9 27 11 28 81 27 51 -1 73 -6 76 -15 3 -8 15 -24
27 -36 l22 -22 1579 2 c869 1 1592 6 1608 10 69 17 155 50 206 78 60 34 156
106 180 135 8 10 31 38 51 63 194 241 205 597 27 862 -37 55 -154 178 -169
178 -4 0 -14 7 -23 15 -45 45 -255 124 -340 127 -36 1 -38 4 -77 84 -172 351
-587 508 -946 358 l-62 -26 -74 75 c-122 122 -263 178 -432 172 -44 -2 -88 -7
-98 -10 -14 -6 -20 -2 -24 15 -3 12 -25 61 -48 109 -194 395 -622 612 -1058
535z"/>
<path d="M3993 2454 c-14 -14 -23 -35 -23 -53 0 -26 33 -63 238 -268 130 -131
248 -246 262 -256 35 -24 67 -21 95 9 25 27 27 54 6 91 -13 23 -485 493 -497
494 -46 7 -60 4 -81 -17z"/>
</g>
</svg>
